<svg width="151" height="54" fill="none" xmlns="http://www.w3.org/2000/svg"><path fill-rule="evenodd" clip-rule="evenodd" d="M66.1 9.16h3.176c1.157 0 1.74.573 1.74 1.865v4.58h6.222v-4.58c0-1.292.574-1.865 1.88-1.865h3.036v3.01h-1.296l-.148.148v12.89h-3.472v-6.445h-6.222v6.446h-3.471v-12.89s0-.148-.148-.148H66.1V9.16zm25.165-.286l.078.009v3.305l-.078-.017c-2.602 0-4.63 2.15-4.63 4.875 0 2.862 2.028 5.152 4.63 5.152l.078-.017v3.305l-.078.009c-4.63 0-8.388-3.722-8.388-8.45 0-4.588 3.759-8.17 8.388-8.17zm.078.009l1.61.156c3.82.746 6.7 3.99 6.7 8.007 0 4.129-2.88 7.503-6.7 8.275l-1.61.165v-3.305l1.767-.382c1.705-.78 2.932-2.61 2.932-4.753a4.866 4.866 0 00-2.932-4.494l-1.767-.364V8.883zm9.032.277h7.161v3.01h-2.245v3.297h2.245v2.863h-2.245v3.582c0 .148 0 .148.148.148h2.097v3.149h-3.976c-1.157 0-1.732-.573-1.732-1.865V12.17h-1.453V9.16zm7.161 0h.07c3.185 0 5.064 1.718 5.064 4.303 0 1.57-.722 2.577-1.444 3.296 1.305.573 2.167 2.004 2.167 3.575 0 3.01-2.315 4.875-5.639 4.875h-.218v-3.15h.357c1.158 0 1.889-.72 1.889-1.864 0-1.145-.731-1.865-1.889-1.865h-.357v-2.863h.07c1.018 0 1.593-.72 1.593-1.718 0-1.006-.575-1.578-1.593-1.578h-.07V9.16zm12.513 0h1.732v4.59c-.139.286-.287.71-.287 1.145l-1.158 3.296h1.445v3.001h-2.306l-1.018 2.585c-.287.998-.862 1.432-2.019 1.432h-2.175v-3.15h.722c.296 0 .296 0 .435-.147l4.629-12.752z" fill="#ED1C24"/><path fill-rule="evenodd" clip-rule="evenodd" d="M121.781 9.16h1.74l4.629 12.752c.139.148.139.148.426.148h.583v3.149h-2.027c-1.157 0-1.732-.434-2.028-1.58l-1.009-2.437h-2.314v-3.001h1.444l-1.149-3.296a2.61 2.61 0 00-.295-1.146V9.16zM66.1 29.789h12.583c1.157 0 1.879.572 1.879 1.865v10.887c0 .139 0 .139.148.139h1.157v3.157H78.83c-1.305 0-1.88-.573-1.88-1.865V32.946s0-.147-.147-.147h-5.787v13.038h-3.471V32.8H66.1v-3.01zm24.878-.286l.07.008v3.305l-.07-.017c-2.61 0-4.63 2.151-4.63 4.875 0 2.863 2.02 5.153 4.63 5.153l.07-.017v3.305l-.07.008c-4.63 0-8.249-3.73-8.249-8.449 0-4.589 3.62-8.171 8.249-8.171z" fill="#ED1C24"/><path fill-rule="evenodd" clip-rule="evenodd" d="M91.047 29.511l1.662.157c3.89.745 6.657 3.99 6.657 8.006 0 4.13-2.767 7.504-6.657 8.276l-1.662.165V42.81l1.836-.382c1.732-.78 2.872-2.611 2.872-4.754 0-2.047-1.14-3.765-2.872-4.493l-1.835-.365v-3.305zm9.041.278h3.185c1.157 0 1.731.572 1.731 1.865v10.887c0 .139 0 .139.148.139h4.194V29.788h3.472v12.89h4.194c.148 0 .148 0 .148-.138V31.654c0-1.293.575-1.865 1.732-1.865h3.185v3.01h-1.306c-.148 0-.148.148-.148.148v11.025c0 1.292-.574 1.865-1.731 1.865h-15.48c-1.297 0-1.88-.573-1.88-1.865V32.946s0-.147-.139-.147h-1.305v-3.01zm24.729 0h10.851c1.305 0 1.74.572 1.74 1.717v2.724h-3.184v-1.283c0-.148 0-.148-.148-.148h-2.019v13.038h-3.481V32.8h-2.018c-.148 0-.148 0-.148.148v1.283h-3.185v-2.723c0-1.146.435-1.718 1.592-1.718zm17.073 0h1.731v4.589a2.625 2.625 0 00-.287 1.145l-1.157 3.296h1.444v3.002h-2.314l-1.01 2.437c-.287 1.145-.87 1.58-2.027 1.58h-2.167v-3.159h.723c.295 0 .295 0 .435-.138l4.629-12.752zm1.731 0h1.732l4.638 12.752c.139.139.139.139.435.139H151v3.157h-2.027c-1.158 0-1.732-.434-2.028-1.579l-1.009-2.437h-2.315v-3.002h1.445l-1.158-3.296c0-.434-.139-.859-.287-1.145v-4.59zM43.807 15.988c.166-.053.383.052.6.338l9.833 9.594c.575.572.575 1.44 0 1.865l-9.832 9.742c-.218.286-.435.355-.6.269-.166-.087-.27-.339-.27-.703v-20.48c0-.357.104-.573.27-.625zM26.987 0h.697l.67.278 10.12 10.028c.434.572.286 1.006-.436 1.006h-4.194c-.722 0-1.297.572-1.297 1.292v7.443c0 .72-.582 1.293-1.453 1.293h-7.37a1.294 1.294 0 01-1.305-1.293v-7.443c0-.72-.574-1.292-1.305-1.292h-4.481c-.723 0-.87-.434-.435-1.006L26.326.277 26.987 0zM11.133 15.77c.183.087.296.339.296.703V37.38c0 .365-.113.582-.296.65-.174.07-.426 0-.722-.216L.431 27.785c-.575-.425-.575-1.293 0-1.865l9.98-9.88c.296-.287.548-.356.723-.27zm12.591 16.457h7.37c.87 0 1.453.572 1.453 1.292v7.877c0 .858.575 1.431 1.297 1.431h3.907c.722 0 1.01.425.435.859l-9.833 9.88a1.458 1.458 0 01-1.018.434c-.357 0-.722-.148-1.01-.434l-9.832-9.88c-.583-.434-.296-.859.427-.859h4.194c.73 0 1.305-.572 1.305-1.431v-7.877c0-.72.583-1.292 1.305-1.292z" fill="#ED1C24"/></svg>